<svg id="visual" viewBox="0 0 900 600" width="900" height="600" xmlns="http://www.w3.org/2000/svg" xmlns:xlink="http://www.w3.org/1999/xlink" version="1.1"><rect x="0" y="0" width="900" height="600" fill="#ffebda"></rect><path d="M0 414L30 402.3C60 390.7 120 367.3 180 350.3C240 333.3 300 322.7 360 325.5C420 328.3 480 344.7 540 364.3C600 384 660 407 720 415.3C780 423.7 840 417.3 870 414.2L900 411L900 601L870 601C840 601 780 601 720 601C660 601 600 601 540 601C480 601 420 601 360 601C300 601 240 601 180 601C120 601 60 601 30 601L0 601Z" fill="#FF723B" stroke-linecap="round" stroke-linejoin="miter"></path></svg>