<svg id="visual" viewBox="0 0 900 600" width="900" height="600" xmlns="http://www.w3.org/2000/svg" xmlns:xlink="http://www.w3.org/1999/xlink" version="1.1"><rect x="0" y="0" width="900" height="600" fill="#ddeaff"></rect><path d="M0 343L37.5 350C75 357 150 371 225 362C300 353 375 321 450 313.2C525 305.3 600 321.7 675 331.2C750 340.7 825 343.3 862.5 344.7L900 346L900 601L862.5 601C825 601 750 601 675 601C600 601 525 601 450 601C375 601 300 601 225 601C150 601 75 601 37.5 601L0 601Z" fill="#243A5E" stroke-linecap="round" stroke-linejoin="miter"></path></svg>